<svg width="24" height="24" viewBox="0 0 24 24" fill="none" xmlns="http://www.w3.org/2000/svg">
<path d="M12.0006 0C5.37222 0 6.51135e-08 5.37222 6.51135e-08 11.9994C-0.000164109 13.5754 0.310129 15.136 0.913159 16.592C1.51619 18.0481 2.40014 19.3711 3.51454 20.4855C4.62893 21.5999 5.95193 22.4838 7.40799 23.0868C8.86405 23.6899 10.4246 24.0002 12.0006 24C18.6265 24 24 18.6278 24 11.9994C24 5.37222 18.6265 0 12.0006 0V0ZM13.1206 4.33227C14.2905 4.33227 14.6342 5.01099 14.6342 5.7872C14.6342 6.7559 13.8593 7.6521 12.5356 7.6521C11.4282 7.6521 10.9007 7.09588 10.9332 6.17468C10.9332 5.39847 11.5819 4.33227 13.1206 4.33227V4.33227ZM10.1232 19.1865C9.32326 19.1865 8.73954 18.7003 9.29827 16.5691L10.2145 12.7881C10.3732 12.1831 10.3995 11.9406 10.2145 11.9406C9.97573 11.9406 8.93703 12.3581 8.32457 12.7706L7.92584 12.1169C9.86949 10.4932 12.1044 9.54075 13.0606 9.54075C13.8605 9.54075 13.993 10.4857 13.5943 11.9406L12.5443 15.9154C12.3581 16.6179 12.4381 16.8604 12.6243 16.8604C12.8643 16.8604 13.6493 16.5704 14.4217 15.9617L14.8742 16.5691C12.9831 18.459 10.9219 19.1865 10.1232 19.1865Z" fill="#03303A"/>
</svg>
